<svg xmlns="http://www.w3.org/2000/svg" version="1.1" xmlns:xlink="http://www.w3.org/1999/xlink" width="1000" height="1000"><g clip-path="url(#SvgjsClipPath1106)"><rect width="1000" height="1000" fill="#ffffff"></rect><g transform="matrix(5,0,0,5,0,0)"><svg xmlns="http://www.w3.org/2000/svg" version="1.1" xmlns:xlink="http://www.w3.org/1999/xlink" width="200" height="200"><svg xmlns="http://www.w3.org/2000/svg" version="1.1" xmlns:xlink="http://www.w3.org/1999/xlink" viewBox="0 0 200 200"><rect width="200" height="200" fill="url('#gradient')"></rect><defs><linearGradient id="gradient" gradientTransform="rotate(0 0.5 0.5)"><stop offset="0%" stop-color="#111111"></stop><stop offset="100%" stop-color="#111111"></stop></linearGradient><clipPath id="SvgjsClipPath1106"><rect width="1000" height="1000" x="0" y="0" rx="500" ry="500"></rect></clipPath></defs><g><g fill="#ffe0c2" transform="matrix(8.213903743315509,0,0,8.213903743315509,57.164648847783944,143.37261296338576)" stroke="#644a40" stroke-width="0.2"><path d="M5.39-2.34L5.39-2.34Q6.08-2.34 6.46-2.72Q6.85-3.10 6.84-3.77L6.84-3.77L9.92-3.77Q9.92-2.03 8.68-0.92Q7.43 0.20 5.47 0.20L5.47 0.20Q3.16 0.20 1.84-1.25Q0.51-2.70 0.51-5.25L0.51-5.25L0.51-5.39Q0.51-6.99 1.10-8.22Q1.69-9.44 2.80-10.10Q3.92-10.76 5.44-10.76L5.44-10.76Q7.50-10.76 8.71-9.62Q9.92-8.48 9.92-6.52L9.92-6.52L6.84-6.52Q6.84-7.34 6.44-7.78Q6.04-8.22 5.36-8.22L5.36-8.22Q4.08-8.22 3.87-6.59L3.87-6.59Q3.80-6.07 3.80-5.17L3.80-5.17Q3.80-3.57 4.18-2.96Q4.56-2.34 5.39-2.34Z"></path></g></g></svg></svg></g></g></svg>